<svg xmlns="http://www.w3.org/2000/svg">
  <!--
    animation1.svg
    Jumping animation
    
    (c) Donald Leung.  All rights reserved.
  -->

  <g id="my-character">
    <animateTransform attributeName="transform" type="translate" begin="0s" dur="1s" values="0 0; 0 100; 0 0" repeatCount="indefinite" />
    <g id="head">
      <circle cx="200" cy="150" r="100" style="fill: #ffe9b3; stroke: black;"/>
      <circle cx="165" cy="110" r="10" style="fill: black; stroke: black;"/>
      <circle cx="235" cy="110" r="10" style="fill: black; stroke: black;"/>
      <path d="M 190 140 L 210 140 L 215 175 L 185 175 z" style="fill: #ffe9b3; stroke: black;"/>
      <path d="M 150 200 L 160 215 L 170 225 L 180 230 L 190 232.5 L 200 235 L 210 232.5 L 220 230 L 230 225 L 240 215 L 250 200 z" style="fill: red; stroke: black;"/>
      <path d="M 190 210 L 210 210 L 210 230 L 209 235 L 208 239 L 206 242 L 203 245 L 200 246 L 197 245 L 194 242 L 192 239 L 191 235 L 190 230 z" style="fill: pink; stroke: black;"/>
      <line x1="200" y1="215" x2="200" y2="240" style="stroke: black;"/>
    </g>
    <line x1="200" y1="250" x2="200" y2="450" style="stroke: black;"/>
    <line x1="200" y1="250" x2="125" y2="325" style="stroke: black;"/>
    <line x1="200" y1="250" x2="275" y2="325" style="stroke: black;"/>
    <line x1="200" y1="450" x2="125" y2="525" style="stroke: black;"/>
    <line x1="200" y1="450" x2="275" y2="525" style="stroke: black;"/>
  </g>
</svg>